<?xml version="1.0" standalone="no"?>
<!DOCTYPE svg PUBLIC "-//W3C//DTD SVG 20010904//EN"
 "http://www.w3.org/TR/2001/REC-SVG-20010904/DTD/svg10.dtd">
<svg version="1.0" xmlns="http://www.w3.org/2000/svg"
 width="204.000000pt" height="470.000000pt" viewBox="0 0 204.000000 470.000000"
 preserveAspectRatio="xMidYMid meet">
<metadata>
Created by potrace 1.13, written by Peter Selinger 2001-2015
</metadata>
<g transform="translate(0.000000,470.000000) scale(0.100000,-0.100000)"
fill="#000000" stroke="none">
<path d="M1007 4534 c-4 -4 -7 -117 -7 -251 l0 -243 23 4 22 3 0 244 c0 212
-2 244 -15 247 -9 1 -19 0 -23 -4z"/>
<path d="M1070 4370 l0 -100 90 -1 c50 -1 102 -2 118 -3 l27 -1 3 103 3 102
-121 0 -120 0 0 -100z"/>
<path d="M1330 4322 l0 -73 -55 -25 c-30 -14 -55 -27 -55 -30 0 -2 62 -4 138
-4 120 1 134 2 113 14 l-25 14 32 16 c18 9 32 19 32 21 0 2 -15 12 -32 21
l-33 17 33 15 c40 19 40 26 1 43 -29 12 -30 13 -13 26 21 15 20 15 -68 17
l-68 1 0 -73z"/>
<path d="M840 4023 c0 -4 10 -17 21 -29 30 -32 30 -94 1 -133 -12 -17 -22 -33
-22 -36 0 -3 84 -5 186 -5 l185 0 -22 31 c-31 43 -31 104 -1 147 l23 32 -185
0 c-102 0 -186 -3 -186 -7z"/>
<path d="M712 3629 c20 -26 23 -45 26 -137 3 -101 2 -109 -22 -144 l-25 -38
336 0 336 0 -24 26 c-22 23 -24 35 -27 137 -3 106 -2 114 22 150 l25 37 -335
0 -335 0 23 -31z"/>
<path d="M564 3149 l26 -31 0 -223 0 -223 -26 -31 -26 -31 489 1 c268 0 482 3
475 6 -35 14 -42 57 -42 280 0 189 2 222 17 243 9 14 22 28 27 32 6 4 -209 8
-477 8 l-489 0 26 -31z m408 -179 l56 -31 54 32 c29 18 64 46 78 62 31 35 53
29 77 -20 18 -40 9 -67 -23 -69 -11 -1 -23 -2 -29 -3 -5 -1 -27 -11 -48 -24
l-38 -23 42 -23 c23 -13 53 -24 67 -25 39 -2 49 -28 27 -70 -25 -45 -49 -51
-75 -18 -12 14 -45 40 -76 59 l-55 33 -52 -26 c-28 -15 -66 -42 -83 -61 -37
-40 -57 -36 -81 14 -20 42 -9 67 29 69 22 1 98 39 98 49 0 10 -76 48 -98 49
-38 2 -49 27 -29 69 22 46 46 51 77 16 14 -15 50 -41 82 -59z"/>
<path d="M840 3024 c0 -8 -7 -22 -15 -31 -19 -18 -9 -36 15 -30 14 4 114 -46
138 -68 8 -7 -116 -68 -135 -67 -24 2 -39 -24 -19 -35 7 -5 15 -16 19 -25 9
-24 28 -23 34 2 3 11 36 37 76 60 l70 41 73 -42 c40 -23 75 -50 77 -60 7 -25
28 -24 34 1 3 11 9 20 14 20 5 0 9 9 9 20 0 14 -6 19 -23 18 -19 -2 -137 56
-137 67 0 11 118 69 137 67 17 -1 23 4 23 18 0 11 -4 20 -9 20 -5 0 -11 9 -14
20 -6 25 -27 26 -34 2 -3 -14 -99 -81 -143 -100 -15 -6 -148 80 -153 98 -6 24
-37 27 -37 4z"/>
<path d="M307 2473 c-4 -3 -7 -15 -7 -25 0 -17 31 -18 716 -20 744 -3 746 -3
730 37 -5 13 -91 15 -719 15 -393 0 -717 -3 -720 -7z"/>
<path d="M304 2395 c-16 -40 0 -45 134 -45 144 0 198 -12 277 -60 l50 -30 -40
36 c-85 77 -197 114 -342 114 -56 0 -75 -4 -79 -15z"/>
<path d="M640 2375 c161 -87 255 -254 249 -444 -2 -91 -3 -91 30 -91 38 0 91
44 91 75 0 13 5 27 10 30 6 3 10 1 10 -5 0 -7 7 -27 15 -45 17 -34 50 -55 90
-55 25 0 25 1 25 85 0 165 38 264 139 365 38 38 89 77 121 92 l55 27 -450 0
-450 1 65 -35z"/>
<path d="M1520 2396 c-67 -14 -168 -67 -206 -108 l-29 -30 50 31 c76 48 133
61 266 61 130 0 149 4 149 30 0 10 -7 21 -16 24 -26 10 -155 5 -214 -8z"/>
<path d="M375 2248 c11 -143 62 -340 101 -393 14 -18 17 -19 42 -5 25 15 43
41 57 85 6 17 9 13 20 -20 28 -78 110 -101 166 -46 16 16 29 39 29 50 0 36 17
31 29 -9 6 -22 21 -44 31 -50 19 -10 20 -7 20 74 0 156 -60 278 -170 344 -74
44 -108 52 -229 52 l-103 0 7 -82z"/>
<path d="M1428 2316 c-101 -36 -177 -106 -220 -202 -16 -38 -22 -74 -26 -159
l-4 -110 26 24 c14 14 26 35 26 47 0 36 20 39 26 4 9 -43 56 -80 103 -80 45 0
86 35 96 81 8 33 25 30 25 -6 0 -24 50 -75 74 -75 18 0 61 102 85 198 21 84
27 121 36 225 l6 67 -108 0 c-62 -1 -123 -6 -145 -14z"/>
<path d="M345 1866 c-32 -48 -122 -60 -165 -21 -26 23 -29 10 -15 -63 39 -199
147 -384 299 -514 55 -46 116 -82 262 -153 214 -105 245 -130 265 -221 13 -57
7 -80 -55 -235 -38 -94 -36 -143 8 -188 22 -22 35 -26 82 -26 50 0 58 3 85 33
41 46 39 94 -11 218 -22 54 -43 115 -46 135 -10 60 20 132 73 179 25 22 49 40
54 40 4 0 77 33 161 73 233 112 352 219 452 408 48 90 96 239 96 297 0 34 -1
35 -19 18 -45 -41 -144 -26 -172 25 l-11 21 -14 -21 c-19 -27 -66 -51 -99 -51
-35 0 -82 25 -96 51 l-11 21 -14 -21 c-20 -28 -66 -51 -101 -51 -32 0 -91 33
-100 56 -5 12 -8 12 -20 -6 -18 -26 -65 -50 -98 -50 -33 0 -80 24 -99 51 l-14
21 -11 -21 c-15 -26 -62 -51 -98 -51 -32 0 -91 33 -99 55 -5 12 -12 8 -34 -14
-49 -54 -129 -54 -174 0 -24 28 -25 29 -36 9 -31 -58 -134 -65 -182 -11 l-28
31 -15 -24z"/>
</g>
</svg>
