<?xml version="1.0" ?><!DOCTYPE svg  PUBLIC '-//W3C//DTD SVG 1.1//EN'  'http://www.w3.org/Graphics/SVG/1.1/DTD/svg11.dtd'><svg enable-background="new 0 0 64 64" height="64px" id="Layer_1" version="1.1" viewBox="0 0 64 64" width="64px" xml:space="preserve" xmlns="http://www.w3.org/2000/svg" xmlns:xlink="http://www.w3.org/1999/xlink"><g><path d="M47.751,34.027V19.764c0-5.884-6.081-6.066-6.081-6.066H22.102c-5.269,0-5.813,4.397-5.853,5.781v14.79   c0,3.548,2.047,5.566,2.643,6.083l10.993,9.168c0.005,0.006,2.121,1.758,4.23-0.001c0.003,0,0.003-0.002,0.003-0.002l10.095-8.42   C47.546,38.318,47.745,34.708,47.751,34.027z M41.949,39.41l-8.225,6.859c0,0,0,0-0.003,0c-1.716,1.434-3.441,0.009-3.444,0.003   l-8.958-7.47c-0.484-0.419-2.152-2.063-2.152-4.954V21.799c0.034-1.126,0.476-4.709,4.767-4.709h15.942   c0,0,4.955,0.148,4.955,4.943v11.618C44.826,34.204,44.664,37.146,41.949,39.41z"/><path d="M61.914,4.209l-0.923-0.924c-0.634-0.609-3.815-3.361-7.097-0.081l-5.65,5.651c0,0-1.377,1.639,0.518,3.759   c0.041,0.046,0.062,0.081,0.096,0.124c1.003,1.057,1.752,2.574,1.752,4.804v4.262c0,0,0.396,2.332,2.729,0l0.55-0.55l8.292-8.291   C62.18,12.964,66.49,8.699,61.914,4.209z"/><path d="M10.889,22.032c0.034,0.03,2.503,2.259,2.503-0.911v-3.915c0.028-0.999,0.299-3.315,1.915-4.973l-0.01-0.01   c0,0,0.049-0.043,0.117-0.117c0,0,0.003-0.001,0.003-0.002c0.402-0.426,1.613-1.974-0.12-3.707c0,0,0,0,0,0l-5.191-5.192   C6.824-0.076,3.642,2.676,3.011,3.286L2.087,4.209C-2.49,8.699,1.82,12.964,1.82,12.964l8.292,8.291L10.889,22.032z"/><path d="M20.819,45.459l-0.368-0.307c-0.299-0.242-2.603-1.937-5.591,0.839c0,0,0,0,0,0.002l-7.201,7.2   c-0.411,0.417-2.013,2.146-2.717,4.339l-1.123,3.52c-0.566,1.766,1.251,1.253,1.251,1.253h0.003l3.29-1.054   c2.416-0.774,4.601-2.822,4.601-2.822l7.612-7.612C23.467,47.926,21.161,45.754,20.819,45.459z"/><path d="M59.058,57.532c-0.704-2.192-2.307-3.922-2.717-4.339l-6.916-6.917c-2.726-2.726-4.754-1.93-5.621-1.338l-0.533,0.444   l-0.001,0.002l-0.047,0.039c-0.36,0.307-2.679,2.498,0.54,5.732l7.272,7.272c0,0,2.186,2.048,4.602,2.822l3.29,1.054h0.003   c0,0,1.815,0.513,1.251-1.253L59.058,57.532z"/></g></svg>